<svg width="183" height="176" viewBox="0 0 183 176" fill="none" xmlns="http://www.w3.org/2000/svg">
<circle cx="92" cy="86" r="63" fill="#FFE145"/>
<circle cx="91.5" cy="63.5" r="63" stroke="#B79C10"/>
<path d="M93.2217 93H85.6318V68.7012C85.6318 66.0579 85.764 63.0182 86.0283 59.582C85.8962 59.7708 85.4053 60.3467 84.5557 61.3096C83.7249 62.2725 82.0918 64 79.6562 66.4922L75.3516 61.791L86.3682 51.5957H93.2217V93Z" fill="#3F4255"/>
<path d="M55.5358 175L51.0238 169.336V175H47.6638V157.24H51.0238V167.344L55.4878 161.704H59.8558L53.9998 168.376L59.9038 175H55.5358ZM63.3834 160.12C62.7914 160.12 62.2954 159.936 61.8954 159.568C61.5114 159.184 61.3194 158.712 61.3194 158.152C61.3194 157.592 61.5114 157.128 61.8954 156.76C62.2954 156.376 62.7914 156.184 63.3834 156.184C63.9754 156.184 64.4634 156.376 64.8474 156.76C65.2474 157.128 65.4474 157.592 65.4474 158.152C65.4474 158.712 65.2474 159.184 64.8474 159.568C64.4634 159.936 63.9754 160.12 63.3834 160.12ZM65.0394 161.704V175H61.6794V161.704H65.0394ZM72.2711 164.464V170.896C72.2711 171.344 72.3751 171.672 72.5831 171.88C72.8071 172.072 73.1751 172.168 73.6871 172.168H75.2471V175H73.1351C70.3031 175 68.8871 173.624 68.8871 170.872V164.464H67.3031V161.704H68.8871V158.416H72.2711V161.704H75.2471V164.464H72.2711ZM76.7998 168.352C76.7998 166.976 77.0798 165.776 77.6398 164.752C78.1998 163.712 78.9758 162.912 79.9678 162.352C80.9598 161.776 82.0958 161.488 83.3758 161.488C85.0238 161.488 86.3838 161.904 87.4558 162.736C88.5438 163.552 89.2718 164.704 89.6398 166.192H86.0158C85.8238 165.616 85.4958 165.168 85.0318 164.848C84.5838 164.512 84.0238 164.344 83.3518 164.344C82.3918 164.344 81.6318 164.696 81.0718 165.4C80.5118 166.088 80.2318 167.072 80.2318 168.352C80.2318 169.616 80.5118 170.6 81.0718 171.304C81.6318 171.992 82.3918 172.336 83.3518 172.336C84.7118 172.336 85.5998 171.728 86.0158 170.512H89.6398C89.2718 171.952 88.5438 173.096 87.4558 173.944C86.3678 174.792 85.0078 175.216 83.3758 175.216C82.0958 175.216 80.9598 174.936 79.9678 174.376C78.9758 173.8 78.1998 173 77.6398 171.976C77.0798 170.936 76.7998 169.728 76.7998 168.352ZM99.5893 161.512C100.597 161.512 101.493 161.736 102.277 162.184C103.061 162.616 103.669 163.264 104.101 164.128C104.549 164.976 104.773 166 104.773 167.2V175H101.413V167.656C101.413 166.6 101.149 165.792 100.621 165.232C100.093 164.656 99.3733 164.368 98.4613 164.368C97.5333 164.368 96.7973 164.656 96.2533 165.232C95.7253 165.792 95.4613 166.6 95.4613 167.656V175H92.1013V157.24H95.4613V163.36C95.8933 162.784 96.4693 162.336 97.1893 162.016C97.9093 161.68 98.7093 161.512 99.5893 161.512ZM120.329 168.064C120.329 168.544 120.297 168.976 120.233 169.36H110.513C110.593 170.32 110.929 171.072 111.521 171.616C112.113 172.16 112.841 172.432 113.705 172.432C114.953 172.432 115.841 171.896 116.369 170.824H119.993C119.609 172.104 118.873 173.16 117.785 173.992C116.697 174.808 115.361 175.216 113.777 175.216C112.497 175.216 111.345 174.936 110.321 174.376C109.313 173.8 108.521 172.992 107.945 171.952C107.385 170.912 107.104 169.712 107.104 168.352C107.104 166.976 107.385 165.768 107.945 164.728C108.505 163.688 109.289 162.888 110.297 162.328C111.305 161.768 112.465 161.488 113.777 161.488C115.041 161.488 116.169 161.76 117.161 162.304C118.169 162.848 118.945 163.624 119.489 164.632C120.049 165.624 120.329 166.768 120.329 168.064ZM116.849 167.104C116.833 166.24 116.521 165.552 115.913 165.04C115.305 164.512 114.561 164.248 113.681 164.248C112.849 164.248 112.145 164.504 111.569 165.016C111.009 165.512 110.665 166.208 110.537 167.104H116.849ZM130.149 161.512C131.733 161.512 133.013 162.016 133.989 163.024C134.965 164.016 135.453 165.408 135.453 167.2V175H132.093V167.656C132.093 166.6 131.829 165.792 131.301 165.232C130.773 164.656 130.053 164.368 129.141 164.368C128.213 164.368 127.477 164.656 126.933 165.232C126.405 165.792 126.141 166.6 126.141 167.656V175H122.781V161.704H126.141V163.36C126.589 162.784 127.157 162.336 127.845 162.016C128.549 161.68 129.317 161.512 130.149 161.512Z" fill="#3F4255"/>
</svg>
