<svg width="183" height="182" viewBox="0 0 183 182" fill="none" xmlns="http://www.w3.org/2000/svg">
<circle cx="92" cy="86" r="63" fill="#FFE145"/>
<circle cx="91.5" cy="63.5" r="63" stroke="#B79C10"/>
<path d="M78.3479 93H70.758V68.7012C70.758 66.0579 70.8902 63.0182 71.1545 59.582C71.0223 59.7708 70.5314 60.3467 69.6818 61.3096C68.8511 62.2725 67.218 64 64.7824 66.4922L60.4777 61.791L71.4943 51.5957H78.3479V93ZM108.096 93H100.506V68.7012C100.506 66.0579 100.638 63.0182 100.902 59.582C100.77 59.7708 100.279 60.3467 99.4295 61.3096C98.5988 62.2725 96.9656 64 94.5301 66.4922L90.2254 61.791L101.242 51.5957H108.096V93Z" fill="#3F4255"/>
<path d="M32.1971 175.216C31.1091 175.216 30.1331 175.024 29.2691 174.64C28.4051 174.24 27.7171 173.704 27.2051 173.032C26.7091 172.36 26.4371 171.616 26.3891 170.8H29.7731C29.8371 171.312 30.0851 171.736 30.5171 172.072C30.9651 172.408 31.5171 172.576 32.1731 172.576C32.8131 172.576 33.3091 172.448 33.6611 172.192C34.0291 171.936 34.2131 171.608 34.2131 171.208C34.2131 170.776 33.9891 170.456 33.5411 170.248C33.1091 170.024 32.4131 169.784 31.4531 169.528C30.4611 169.288 29.6451 169.04 29.0051 168.784C28.3811 168.528 27.8371 168.136 27.3731 167.608C26.9251 167.08 26.7011 166.368 26.7011 165.472C26.7011 164.736 26.9091 164.064 27.3251 163.456C27.7571 162.848 28.3651 162.368 29.1491 162.016C29.9491 161.664 30.8851 161.488 31.9571 161.488C33.5411 161.488 34.8051 161.888 35.7491 162.688C36.6931 163.472 37.2131 164.536 37.3091 165.88H34.0931C34.0451 165.352 33.8211 164.936 33.4211 164.632C33.0371 164.312 32.5171 164.152 31.8611 164.152C31.2531 164.152 30.7811 164.264 30.4451 164.488C30.1251 164.712 29.9651 165.024 29.9651 165.424C29.9651 165.872 30.1891 166.216 30.6371 166.456C31.0851 166.68 31.7811 166.912 32.7251 167.152C33.6851 167.392 34.4771 167.64 35.1011 167.896C35.7251 168.152 36.2611 168.552 36.7091 169.096C37.1731 169.624 37.4131 170.328 37.4291 171.208C37.4291 171.976 37.2131 172.664 36.7811 173.272C36.3651 173.88 35.7571 174.36 34.9571 174.712C34.1731 175.048 33.2531 175.216 32.1971 175.216ZM43.5473 163.624C43.9793 163.016 44.5713 162.512 45.3233 162.112C46.0913 161.696 46.9633 161.488 47.9393 161.488C49.0753 161.488 50.0993 161.768 51.0113 162.328C51.9393 162.888 52.6673 163.688 53.1953 164.728C53.7393 165.752 54.0113 166.944 54.0113 168.304C54.0113 169.664 53.7393 170.872 53.1953 171.928C52.6673 172.968 51.9393 173.776 51.0113 174.352C50.0993 174.928 49.0753 175.216 47.9393 175.216C46.9633 175.216 46.0993 175.016 45.3473 174.616C44.6113 174.216 44.0113 173.712 43.5473 173.104V181.336H40.1873V161.704H43.5473V163.624ZM50.5793 168.304C50.5793 167.504 50.4113 166.816 50.0753 166.24C49.7553 165.648 49.3233 165.2 48.7793 164.896C48.2513 164.592 47.6753 164.44 47.0513 164.44C46.4433 164.44 45.8673 164.6 45.3233 164.92C44.7953 165.224 44.3633 165.672 44.0273 166.264C43.7073 166.856 43.5473 167.552 43.5473 168.352C43.5473 169.152 43.7073 169.848 44.0273 170.44C44.3633 171.032 44.7953 171.488 45.3233 171.808C45.8673 172.112 46.4433 172.264 47.0513 172.264C47.6753 172.264 48.2513 172.104 48.7793 171.784C49.3233 171.464 49.7553 171.008 50.0753 170.416C50.4113 169.824 50.5793 169.12 50.5793 168.304ZM68.8129 168.064C68.8129 168.544 68.7809 168.976 68.7169 169.36H58.9969C59.0769 170.32 59.4129 171.072 60.0049 171.616C60.5969 172.16 61.3249 172.432 62.1889 172.432C63.4369 172.432 64.3249 171.896 64.8529 170.824H68.4769C68.0929 172.104 67.3569 173.16 66.2689 173.992C65.1809 174.808 63.8449 175.216 62.2609 175.216C60.9809 175.216 59.8289 174.936 58.8049 174.376C57.7969 173.8 57.0049 172.992 56.4289 171.952C55.8689 170.912 55.5889 169.712 55.5889 168.352C55.5889 166.976 55.8689 165.768 56.4289 164.728C56.9889 163.688 57.7729 162.888 58.7809 162.328C59.7889 161.768 60.9489 161.488 62.2609 161.488C63.5249 161.488 64.6529 161.76 65.6449 162.304C66.6529 162.848 67.4289 163.624 67.9729 164.632C68.5329 165.624 68.8129 166.768 68.8129 168.064ZM65.3329 167.104C65.3169 166.24 65.0049 165.552 64.3969 165.04C63.7889 164.512 63.0449 164.248 62.1649 164.248C61.3329 164.248 60.6289 164.504 60.0529 165.016C59.4929 165.512 59.1489 166.208 59.0209 167.104H65.3329ZM70.4014 168.352C70.4014 166.976 70.6814 165.776 71.2414 164.752C71.8014 163.712 72.5774 162.912 73.5694 162.352C74.5614 161.776 75.6974 161.488 76.9774 161.488C78.6254 161.488 79.9854 161.904 81.0574 162.736C82.1454 163.552 82.8734 164.704 83.2414 166.192H79.6174C79.4254 165.616 79.0974 165.168 78.6334 164.848C78.1854 164.512 77.6254 164.344 76.9534 164.344C75.9934 164.344 75.2334 164.696 74.6734 165.4C74.1134 166.088 73.8334 167.072 73.8334 168.352C73.8334 169.616 74.1134 170.6 74.6734 171.304C75.2334 171.992 75.9934 172.336 76.9534 172.336C78.3134 172.336 79.2014 171.728 79.6174 170.512H83.2414C82.8734 171.952 82.1454 173.096 81.0574 173.944C79.9694 174.792 78.6094 175.216 76.9774 175.216C75.6974 175.216 74.5614 174.936 73.5694 174.376C72.5774 173.8 71.8014 173 71.2414 171.976C70.6814 170.936 70.4014 169.728 70.4014 168.352ZM87.4069 160.12C86.8149 160.12 86.3189 159.936 85.9189 159.568C85.5349 159.184 85.3429 158.712 85.3429 158.152C85.3429 157.592 85.5349 157.128 85.9189 156.76C86.3189 156.376 86.8149 156.184 87.4069 156.184C87.9989 156.184 88.4869 156.376 88.8709 156.76C89.2709 157.128 89.4709 157.592 89.4709 158.152C89.4709 158.712 89.2709 159.184 88.8709 159.568C88.4869 159.936 87.9989 160.12 87.4069 160.12ZM89.0629 161.704V175H85.7029V161.704H89.0629ZM91.5186 168.304C91.5186 166.96 91.7826 165.768 92.3106 164.728C92.8546 163.688 93.5826 162.888 94.4946 162.328C95.4226 161.768 96.4546 161.488 97.5906 161.488C98.5826 161.488 99.4466 161.688 100.183 162.088C100.935 162.488 101.535 162.992 101.983 163.6V161.704H105.367V175H101.983V173.056C101.551 173.68 100.951 174.2 100.183 174.616C99.4306 175.016 98.5586 175.216 97.5666 175.216C96.4466 175.216 95.4226 174.928 94.4946 174.352C93.5826 173.776 92.8546 172.968 92.3106 171.928C91.7826 170.872 91.5186 169.664 91.5186 168.304ZM101.983 168.352C101.983 167.536 101.823 166.84 101.503 166.264C101.183 165.672 100.751 165.224 100.207 164.92C99.6626 164.6 99.0786 164.44 98.4546 164.44C97.8306 164.44 97.2546 164.592 96.7266 164.896C96.1986 165.2 95.7666 165.648 95.4306 166.24C95.1106 166.816 94.9506 167.504 94.9506 168.304C94.9506 169.104 95.1106 169.808 95.4306 170.416C95.7666 171.008 96.1986 171.464 96.7266 171.784C97.2706 172.104 97.8466 172.264 98.4546 172.264C99.0786 172.264 99.6626 172.112 100.207 171.808C100.751 171.488 101.183 171.04 101.503 170.464C101.823 169.872 101.983 169.168 101.983 168.352ZM112.008 157.24V175H108.648V157.24H112.008ZM119.24 164.464V170.896C119.24 171.344 119.344 171.672 119.552 171.88C119.776 172.072 120.144 172.168 120.656 172.168H122.216V175H120.104C117.272 175 115.856 173.624 115.856 170.872V164.464H114.272V161.704H115.856V158.416H119.24V161.704H122.216V164.464H119.24ZM126.337 160.12C125.745 160.12 125.249 159.936 124.849 159.568C124.465 159.184 124.273 158.712 124.273 158.152C124.273 157.592 124.465 157.128 124.849 156.76C125.249 156.376 125.745 156.184 126.337 156.184C126.929 156.184 127.417 156.376 127.801 156.76C128.201 157.128 128.401 157.592 128.401 158.152C128.401 158.712 128.201 159.184 127.801 159.568C127.417 159.936 126.929 160.12 126.337 160.12ZM127.993 161.704V175H124.633V161.704H127.993ZM143.672 168.064C143.672 168.544 143.64 168.976 143.576 169.36H133.856C133.936 170.32 134.272 171.072 134.864 171.616C135.456 172.16 136.184 172.432 137.048 172.432C138.296 172.432 139.184 171.896 139.712 170.824H143.336C142.952 172.104 142.216 173.16 141.128 173.992C140.04 174.808 138.704 175.216 137.12 175.216C135.84 175.216 134.688 174.936 133.664 174.376C132.656 173.8 131.864 172.992 131.288 171.952C130.728 170.912 130.448 169.712 130.448 168.352C130.448 166.976 130.728 165.768 131.288 164.728C131.848 163.688 132.632 162.888 133.64 162.328C134.648 161.768 135.808 161.488 137.12 161.488C138.384 161.488 139.512 161.76 140.504 162.304C141.512 162.848 142.288 163.624 142.832 164.632C143.392 165.624 143.672 166.768 143.672 168.064ZM140.192 167.104C140.176 166.24 139.864 165.552 139.256 165.04C138.648 164.512 137.904 164.248 137.024 164.248C136.192 164.248 135.488 164.504 134.912 165.016C134.352 165.512 134.008 166.208 133.88 167.104H140.192ZM151.213 175.216C150.125 175.216 149.149 175.024 148.285 174.64C147.421 174.24 146.733 173.704 146.221 173.032C145.725 172.36 145.453 171.616 145.405 170.8H148.789C148.853 171.312 149.101 171.736 149.533 172.072C149.981 172.408 150.533 172.576 151.189 172.576C151.829 172.576 152.325 172.448 152.677 172.192C153.045 171.936 153.229 171.608 153.229 171.208C153.229 170.776 153.005 170.456 152.557 170.248C152.125 170.024 151.429 169.784 150.469 169.528C149.477 169.288 148.661 169.04 148.021 168.784C147.397 168.528 146.853 168.136 146.389 167.608C145.941 167.08 145.717 166.368 145.717 165.472C145.717 164.736 145.925 164.064 146.341 163.456C146.773 162.848 147.381 162.368 148.165 162.016C148.965 161.664 149.901 161.488 150.973 161.488C152.557 161.488 153.821 161.888 154.765 162.688C155.709 163.472 156.229 164.536 156.325 165.88H153.109C153.061 165.352 152.837 164.936 152.437 164.632C152.053 164.312 151.533 164.152 150.877 164.152C150.269 164.152 149.797 164.264 149.461 164.488C149.141 164.712 148.981 165.024 148.981 165.424C148.981 165.872 149.205 166.216 149.653 166.456C150.101 166.68 150.797 166.912 151.741 167.152C152.701 167.392 153.493 167.64 154.117 167.896C154.741 168.152 155.277 168.552 155.725 169.096C156.189 169.624 156.429 170.328 156.445 171.208C156.445 171.976 156.229 172.664 155.797 173.272C155.381 173.88 154.773 174.36 153.973 174.712C153.189 175.048 152.269 175.216 151.213 175.216Z" fill="#3F4255"/>
</svg>
