<svg width="185" height="182" viewBox="0 0 185 182" fill="none" xmlns="http://www.w3.org/2000/svg">
<circle cx="93" cy="86" r="63" fill="#FFE145"/>
<circle cx="92.5" cy="63.5" r="63" stroke="#B79C10"/>
<path d="M94.2217 93H86.6318V68.7012C86.6318 66.0579 86.764 63.0182 87.0283 59.582C86.8962 59.7708 86.4053 60.3467 85.5557 61.3096C84.7249 62.2725 83.0918 64 80.6562 66.4922L76.3516 61.791L87.3682 51.5957H94.2217V93Z" fill="#3F4255"/>
<path d="M5.20863 164.464V170.896C5.20863 171.344 5.31263 171.672 5.52063 171.88C5.74463 172.072 6.11263 172.168 6.62463 172.168H8.18463V175H6.07263C3.24063 175 1.82463 173.624 1.82463 170.872V164.464H0.240625V161.704H1.82463V158.416H5.20863V161.704H8.18463V164.464H5.20863ZM13.9613 163.768C14.3933 163.064 14.9533 162.512 15.6413 162.112C16.3453 161.712 17.1453 161.512 18.0413 161.512V165.04H17.1533C16.0973 165.04 15.2973 165.288 14.7533 165.784C14.2253 166.28 13.9613 167.144 13.9613 168.376V175H10.6013V161.704H13.9613V163.768ZM19.4404 168.304C19.4404 166.96 19.7044 165.768 20.2324 164.728C20.7764 163.688 21.5044 162.888 22.4164 162.328C23.3444 161.768 24.3764 161.488 25.5124 161.488C26.5044 161.488 27.3684 161.688 28.1044 162.088C28.8564 162.488 29.4564 162.992 29.9044 163.6V161.704H33.2884V175H29.9044V173.056C29.4724 173.68 28.8724 174.2 28.1044 174.616C27.3524 175.016 26.4804 175.216 25.4884 175.216C24.3684 175.216 23.3444 174.928 22.4164 174.352C21.5044 173.776 20.7764 172.968 20.2324 171.928C19.7044 170.872 19.4404 169.664 19.4404 168.304ZM29.9044 168.352C29.9044 167.536 29.7444 166.84 29.4244 166.264C29.1044 165.672 28.6724 165.224 28.1284 164.92C27.5844 164.6 27.0004 164.44 26.3764 164.44C25.7524 164.44 25.1764 164.592 24.6484 164.896C24.1204 165.2 23.6884 165.648 23.3524 166.24C23.0324 166.816 22.8724 167.504 22.8724 168.304C22.8724 169.104 23.0324 169.808 23.3524 170.416C23.6884 171.008 24.1204 171.464 24.6484 171.784C25.1924 172.104 25.7684 172.264 26.3764 172.264C27.0004 172.264 27.5844 172.112 28.1284 171.808C28.6724 171.488 29.1044 171.04 29.4244 170.464C29.7444 169.872 29.9044 169.168 29.9044 168.352ZM43.9381 161.512C45.5221 161.512 46.8021 162.016 47.7781 163.024C48.7541 164.016 49.2421 165.408 49.2421 167.2V175H45.8821V167.656C45.8821 166.6 45.6181 165.792 45.0901 165.232C44.5621 164.656 43.8421 164.368 42.9301 164.368C42.0021 164.368 41.2661 164.656 40.7221 165.232C40.1941 165.792 39.9301 166.6 39.9301 167.656V175H36.5701V161.704H39.9301V163.36C40.3781 162.784 40.9461 162.336 41.6341 162.016C42.3381 161.68 43.1061 161.512 43.9381 161.512ZM57.5253 175.216C56.4373 175.216 55.4613 175.024 54.5973 174.64C53.7333 174.24 53.0453 173.704 52.5333 173.032C52.0373 172.36 51.7653 171.616 51.7173 170.8H55.1013C55.1653 171.312 55.4133 171.736 55.8453 172.072C56.2933 172.408 56.8453 172.576 57.5013 172.576C58.1413 172.576 58.6373 172.448 58.9893 172.192C59.3573 171.936 59.5413 171.608 59.5413 171.208C59.5413 170.776 59.3173 170.456 58.8693 170.248C58.4373 170.024 57.7413 169.784 56.7812 169.528C55.7893 169.288 54.9733 169.04 54.3333 168.784C53.7093 168.528 53.1653 168.136 52.7013 167.608C52.2533 167.08 52.0293 166.368 52.0293 165.472C52.0293 164.736 52.2373 164.064 52.6533 163.456C53.0853 162.848 53.6933 162.368 54.4773 162.016C55.2773 161.664 56.2133 161.488 57.2853 161.488C58.8693 161.488 60.1333 161.888 61.0773 162.688C62.0213 163.472 62.5413 164.536 62.6373 165.88H59.4213C59.3733 165.352 59.1493 164.936 58.7493 164.632C58.3653 164.312 57.8453 164.152 57.1893 164.152C56.5813 164.152 56.1093 164.264 55.7733 164.488C55.4533 164.712 55.2933 165.024 55.2933 165.424C55.2933 165.872 55.5173 166.216 55.9653 166.456C56.4133 166.68 57.1093 166.912 58.0533 167.152C59.0133 167.392 59.8053 167.64 60.4293 167.896C61.0533 168.152 61.5893 168.552 62.0373 169.096C62.5013 169.624 62.7413 170.328 62.7573 171.208C62.7573 171.976 62.5413 172.664 62.1093 173.272C61.6933 173.88 61.0853 174.36 60.2853 174.712C59.5013 175.048 58.5813 175.216 57.5253 175.216ZM68.8754 163.624C69.3074 163.016 69.8994 162.512 70.6514 162.112C71.4194 161.696 72.2914 161.488 73.2674 161.488C74.4034 161.488 75.4274 161.768 76.3394 162.328C77.2674 162.888 77.9954 163.688 78.5234 164.728C79.0674 165.752 79.3394 166.944 79.3394 168.304C79.3394 169.664 79.0674 170.872 78.5234 171.928C77.9954 172.968 77.2674 173.776 76.3394 174.352C75.4274 174.928 74.4034 175.216 73.2674 175.216C72.2914 175.216 71.4274 175.016 70.6754 174.616C69.9394 174.216 69.3394 173.712 68.8754 173.104V181.336H65.5154V161.704H68.8754V163.624ZM75.9074 168.304C75.9074 167.504 75.7394 166.816 75.4034 166.24C75.0834 165.648 74.6514 165.2 74.1074 164.896C73.5794 164.592 73.0034 164.44 72.3794 164.44C71.7714 164.44 71.1954 164.6 70.6514 164.92C70.1234 165.224 69.6914 165.672 69.3554 166.264C69.0354 166.856 68.8754 167.552 68.8754 168.352C68.8754 169.152 69.0354 169.848 69.3554 170.44C69.6914 171.032 70.1234 171.488 70.6514 171.808C71.1954 172.112 71.7714 172.264 72.3794 172.264C73.0034 172.264 73.5794 172.104 74.1074 171.784C74.6514 171.464 75.0834 171.008 75.4034 170.416C75.7394 169.824 75.9074 169.12 75.9074 168.304ZM87.685 175.216C86.405 175.216 85.253 174.936 84.229 174.376C83.205 173.8 82.397 172.992 81.805 171.952C81.229 170.912 80.941 169.712 80.941 168.352C80.941 166.992 81.237 165.792 81.829 164.752C82.437 163.712 83.261 162.912 84.301 162.352C85.341 161.776 86.501 161.488 87.781 161.488C89.061 161.488 90.221 161.776 91.261 162.352C92.301 162.912 93.117 163.712 93.709 164.752C94.317 165.792 94.621 166.992 94.621 168.352C94.621 169.712 94.309 170.912 93.685 171.952C93.077 172.992 92.245 173.8 91.189 174.376C90.149 174.936 88.981 175.216 87.685 175.216ZM87.685 172.288C88.293 172.288 88.861 172.144 89.389 171.856C89.933 171.552 90.365 171.104 90.685 170.512C91.005 169.92 91.165 169.2 91.165 168.352C91.165 167.088 90.829 166.12 90.157 165.448C89.501 164.76 88.693 164.416 87.733 164.416C86.773 164.416 85.965 164.76 85.309 165.448C84.669 166.12 84.349 167.088 84.349 168.352C84.349 169.616 84.661 170.592 85.285 171.28C85.925 171.952 86.725 172.288 87.685 172.288ZM100.446 163.768C100.878 163.064 101.438 162.512 102.126 162.112C102.83 161.712 103.63 161.512 104.526 161.512V165.04H103.638C102.582 165.04 101.782 165.288 101.238 165.784C100.71 166.28 100.446 167.144 100.446 168.376V175H97.0857V161.704H100.446V163.768ZM110.701 164.464V170.896C110.701 171.344 110.805 171.672 111.013 171.88C111.237 172.072 111.605 172.168 112.117 172.168H113.677V175H111.565C108.733 175 107.317 173.624 107.317 170.872V164.464H105.733V161.704H107.317V158.416H110.701V161.704H113.677V164.464H110.701ZM120.948 168.352C120.948 166.976 121.228 165.776 121.788 164.752C122.348 163.712 123.124 162.912 124.116 162.352C125.108 161.776 126.244 161.488 127.524 161.488C129.172 161.488 130.532 161.904 131.604 162.736C132.692 163.552 133.42 164.704 133.788 166.192H130.164C129.972 165.616 129.644 165.168 129.18 164.848C128.732 164.512 128.172 164.344 127.5 164.344C126.54 164.344 125.78 164.696 125.22 165.4C124.66 166.088 124.38 167.072 124.38 168.352C124.38 169.616 124.66 170.6 125.22 171.304C125.78 171.992 126.54 172.336 127.5 172.336C128.86 172.336 129.748 171.728 130.164 170.512H133.788C133.42 171.952 132.692 173.096 131.604 173.944C130.516 174.792 129.156 175.216 127.524 175.216C126.244 175.216 125.108 174.936 124.116 174.376C123.124 173.8 122.348 173 121.788 171.976C121.228 170.936 120.948 169.728 120.948 168.352ZM142.154 175.216C140.874 175.216 139.722 174.936 138.698 174.376C137.674 173.8 136.866 172.992 136.274 171.952C135.698 170.912 135.41 169.712 135.41 168.352C135.41 166.992 135.706 165.792 136.298 164.752C136.906 163.712 137.73 162.912 138.77 162.352C139.81 161.776 140.97 161.488 142.25 161.488C143.53 161.488 144.69 161.776 145.73 162.352C146.77 162.912 147.586 163.712 148.178 164.752C148.786 165.792 149.09 166.992 149.09 168.352C149.09 169.712 148.778 170.912 148.154 171.952C147.546 172.992 146.714 173.8 145.658 174.376C144.618 174.936 143.45 175.216 142.154 175.216ZM142.154 172.288C142.762 172.288 143.33 172.144 143.858 171.856C144.402 171.552 144.834 171.104 145.154 170.512C145.474 169.92 145.634 169.2 145.634 168.352C145.634 167.088 145.298 166.12 144.626 165.448C143.97 164.76 143.162 164.416 142.202 164.416C141.242 164.416 140.434 164.76 139.778 165.448C139.138 166.12 138.818 167.088 138.818 168.352C138.818 169.616 139.13 170.592 139.754 171.28C140.394 171.952 141.194 172.288 142.154 172.288ZM156.642 175.216C155.554 175.216 154.578 175.024 153.714 174.64C152.85 174.24 152.162 173.704 151.65 173.032C151.154 172.36 150.882 171.616 150.834 170.8H154.218C154.282 171.312 154.53 171.736 154.962 172.072C155.41 172.408 155.962 172.576 156.618 172.576C157.258 172.576 157.754 172.448 158.106 172.192C158.474 171.936 158.658 171.608 158.658 171.208C158.658 170.776 158.434 170.456 157.986 170.248C157.554 170.024 156.858 169.784 155.898 169.528C154.906 169.288 154.09 169.04 153.45 168.784C152.826 168.528 152.282 168.136 151.818 167.608C151.37 167.08 151.146 166.368 151.146 165.472C151.146 164.736 151.354 164.064 151.77 163.456C152.202 162.848 152.81 162.368 153.594 162.016C154.394 161.664 155.33 161.488 156.402 161.488C157.986 161.488 159.25 161.888 160.194 162.688C161.138 163.472 161.658 164.536 161.754 165.88H158.538C158.49 165.352 158.266 164.936 157.866 164.632C157.482 164.312 156.962 164.152 156.306 164.152C155.698 164.152 155.226 164.264 154.89 164.488C154.57 164.712 154.41 165.024 154.41 165.424C154.41 165.872 154.634 166.216 155.082 166.456C155.53 166.68 156.226 166.912 157.17 167.152C158.13 167.392 158.922 167.64 159.546 167.896C160.17 168.152 160.706 168.552 161.154 169.096C161.618 169.624 161.858 170.328 161.874 171.208C161.874 171.976 161.658 172.664 161.226 173.272C160.81 173.88 160.202 174.36 159.402 174.712C158.618 175.048 157.698 175.216 156.642 175.216ZM168.545 164.464V170.896C168.545 171.344 168.649 171.672 168.857 171.88C169.081 172.072 169.449 172.168 169.961 172.168H171.521V175H169.409C166.577 175 165.161 173.624 165.161 170.872V164.464H163.577V161.704H165.161V158.416H168.545V161.704H171.521V164.464H168.545ZM179.025 175.216C177.937 175.216 176.961 175.024 176.097 174.64C175.233 174.24 174.545 173.704 174.033 173.032C173.537 172.36 173.265 171.616 173.217 170.8H176.601C176.665 171.312 176.913 171.736 177.345 172.072C177.793 172.408 178.345 172.576 179.001 172.576C179.641 172.576 180.137 172.448 180.489 172.192C180.857 171.936 181.041 171.608 181.041 171.208C181.041 170.776 180.817 170.456 180.369 170.248C179.937 170.024 179.241 169.784 178.281 169.528C177.289 169.288 176.473 169.04 175.833 168.784C175.209 168.528 174.665 168.136 174.201 167.608C173.753 167.08 173.529 166.368 173.529 165.472C173.529 164.736 173.737 164.064 174.153 163.456C174.585 162.848 175.193 162.368 175.977 162.016C176.777 161.664 177.713 161.488 178.785 161.488C180.369 161.488 181.633 161.888 182.577 162.688C183.521 163.472 184.041 164.536 184.137 165.88H180.921C180.873 165.352 180.649 164.936 180.249 164.632C179.865 164.312 179.345 164.152 178.689 164.152C178.081 164.152 177.609 164.264 177.273 164.488C176.953 164.712 176.793 165.024 176.793 165.424C176.793 165.872 177.017 166.216 177.465 166.456C177.913 166.68 178.609 166.912 179.553 167.152C180.513 167.392 181.305 167.64 181.929 167.896C182.553 168.152 183.089 168.552 183.537 169.096C184.001 169.624 184.241 170.328 184.257 171.208C184.257 171.976 184.041 172.664 183.609 173.272C183.193 173.88 182.585 174.36 181.785 174.712C181.001 175.048 180.081 175.216 179.025 175.216Z" fill="#3F4255"/>
</svg>
