<svg width="183" height="176" viewBox="0 0 183 176" fill="none" xmlns="http://www.w3.org/2000/svg">
<circle cx="92" cy="86" r="63" fill="#FFE145"/>
<circle cx="91.5" cy="63.5" r="63" stroke="#B79C10"/>
<path d="M78.3479 93H70.758V68.7012C70.758 66.0579 70.8902 63.0182 71.1545 59.582C71.0223 59.7708 70.5314 60.3467 69.6818 61.3096C68.8511 62.2725 67.218 64 64.7824 66.4922L60.4777 61.791L71.4943 51.5957H78.3479V93ZM108.096 93H100.506V68.7012C100.506 66.0579 100.638 63.0182 100.902 59.582C100.77 59.7708 100.279 60.3467 99.4295 61.3096C98.5988 62.2725 96.9656 64 94.5301 66.4922L90.2254 61.791L101.242 51.5957H108.096V93Z" fill="#3F4255"/>
<path d="M24.891 163.768C25.323 163.064 25.883 162.512 26.571 162.112C27.275 161.712 28.075 161.512 28.971 161.512V165.04H28.083C27.027 165.04 26.227 165.288 25.683 165.784C25.155 166.28 24.891 167.144 24.891 168.376V175H21.531V161.704H24.891V163.768ZM43.5941 168.064C43.5941 168.544 43.5621 168.976 43.4981 169.36H33.7781C33.8581 170.32 34.1941 171.072 34.7861 171.616C35.3781 172.16 36.1061 172.432 36.9701 172.432C38.2181 172.432 39.1061 171.896 39.6341 170.824H43.2581C42.8741 172.104 42.1381 173.16 41.0501 173.992C39.9621 174.808 38.6261 175.216 37.0421 175.216C35.7621 175.216 34.6101 174.936 33.5861 174.376C32.5781 173.8 31.7861 172.992 31.2101 171.952C30.6501 170.912 30.3701 169.712 30.3701 168.352C30.3701 166.976 30.6501 165.768 31.2101 164.728C31.7701 163.688 32.5541 162.888 33.5621 162.328C34.5701 161.768 35.7301 161.488 37.0421 161.488C38.3061 161.488 39.4341 161.76 40.4261 162.304C41.4341 162.848 42.2101 163.624 42.7541 164.632C43.3141 165.624 43.5941 166.768 43.5941 168.064ZM40.1141 167.104C40.0981 166.24 39.7861 165.552 39.1781 165.04C38.5701 164.512 37.8261 164.248 36.9461 164.248C36.1141 164.248 35.4101 164.504 34.8341 165.016C34.2741 165.512 33.9301 166.208 33.8021 167.104H40.1141ZM51.1346 175.216C50.0466 175.216 49.0706 175.024 48.2066 174.64C47.3426 174.24 46.6546 173.704 46.1426 173.032C45.6466 172.36 45.3746 171.616 45.3266 170.8H48.7106C48.7746 171.312 49.0226 171.736 49.4546 172.072C49.9026 172.408 50.4546 172.576 51.1106 172.576C51.7506 172.576 52.2466 172.448 52.5986 172.192C52.9666 171.936 53.1506 171.608 53.1506 171.208C53.1506 170.776 52.9266 170.456 52.4786 170.248C52.0466 170.024 51.3506 169.784 50.3906 169.528C49.3986 169.288 48.5826 169.04 47.9426 168.784C47.3186 168.528 46.7746 168.136 46.3106 167.608C45.8626 167.08 45.6386 166.368 45.6386 165.472C45.6386 164.736 45.8466 164.064 46.2626 163.456C46.6946 162.848 47.3026 162.368 48.0866 162.016C48.8866 161.664 49.8226 161.488 50.8946 161.488C52.4786 161.488 53.7426 161.888 54.6866 162.688C55.6306 163.472 56.1506 164.536 56.2466 165.88H53.0306C52.9826 165.352 52.7586 164.936 52.3586 164.632C51.9746 164.312 51.4546 164.152 50.7986 164.152C50.1906 164.152 49.7186 164.264 49.3826 164.488C49.0626 164.712 48.9026 165.024 48.9026 165.424C48.9026 165.872 49.1266 166.216 49.5746 166.456C50.0226 166.68 50.7186 166.912 51.6626 167.152C52.6226 167.392 53.4146 167.64 54.0386 167.896C54.6626 168.152 55.1986 168.552 55.6466 169.096C56.1106 169.624 56.3506 170.328 56.3666 171.208C56.3666 171.976 56.1506 172.664 55.7186 173.272C55.3026 173.88 54.6946 174.36 53.8946 174.712C53.1106 175.048 52.1906 175.216 51.1346 175.216ZM63.0368 164.464V170.896C63.0368 171.344 63.1408 171.672 63.3488 171.88C63.5728 172.072 63.9408 172.168 64.4528 172.168H66.0128V175H63.9008C61.0688 175 59.6528 173.624 59.6528 170.872V164.464H58.0688V161.704H59.6528V158.416H63.0368V161.704H66.0128V164.464H63.0368ZM67.5654 168.304C67.5654 166.96 67.8294 165.768 68.3574 164.728C68.9014 163.688 69.6294 162.888 70.5414 162.328C71.4694 161.768 72.5014 161.488 73.6374 161.488C74.6294 161.488 75.4934 161.688 76.2294 162.088C76.9814 162.488 77.5814 162.992 78.0294 163.6V161.704H81.4134V175H78.0294V173.056C77.5974 173.68 76.9974 174.2 76.2294 174.616C75.4774 175.016 74.6054 175.216 73.6134 175.216C72.4934 175.216 71.4694 174.928 70.5414 174.352C69.6294 173.776 68.9014 172.968 68.3574 171.928C67.8294 170.872 67.5654 169.664 67.5654 168.304ZM78.0294 168.352C78.0294 167.536 77.8694 166.84 77.5494 166.264C77.2294 165.672 76.7974 165.224 76.2534 164.92C75.7094 164.6 75.1254 164.44 74.5014 164.44C73.8774 164.44 73.3014 164.592 72.7734 164.896C72.2454 165.2 71.8134 165.648 71.4774 166.24C71.1574 166.816 70.9974 167.504 70.9974 168.304C70.9974 169.104 71.1574 169.808 71.4774 170.416C71.8134 171.008 72.2454 171.464 72.7734 171.784C73.3174 172.104 73.8934 172.264 74.5014 172.264C75.1254 172.264 75.7094 172.112 76.2534 171.808C76.7974 171.488 77.2294 171.04 77.5494 170.464C77.8694 169.872 78.0294 169.168 78.0294 168.352ZM97.2471 161.704V175H93.8631V173.32C93.4311 173.896 92.8631 174.352 92.1591 174.688C91.4711 175.008 90.7191 175.168 89.9031 175.168C88.8631 175.168 87.9431 174.952 87.1431 174.52C86.3431 174.072 85.7111 173.424 85.2471 172.576C84.7991 171.712 84.5751 170.688 84.5751 169.504V161.704H87.9351V169.024C87.9351 170.08 88.1991 170.896 88.7271 171.472C89.2551 172.032 89.9751 172.312 90.8871 172.312C91.8151 172.312 92.5431 172.032 93.0711 171.472C93.5991 170.896 93.8631 170.08 93.8631 169.024V161.704H97.2471ZM103.922 163.768C104.354 163.064 104.914 162.512 105.602 162.112C106.306 161.712 107.106 161.512 108.002 161.512V165.04H107.114C106.058 165.04 105.258 165.288 104.714 165.784C104.186 166.28 103.922 167.144 103.922 168.376V175H100.562V161.704H103.922V163.768ZM109.401 168.304C109.401 166.96 109.665 165.768 110.193 164.728C110.737 163.688 111.465 162.888 112.377 162.328C113.305 161.768 114.337 161.488 115.473 161.488C116.465 161.488 117.329 161.688 118.065 162.088C118.817 162.488 119.417 162.992 119.865 163.6V161.704H123.249V175H119.865V173.056C119.433 173.68 118.833 174.2 118.065 174.616C117.313 175.016 116.441 175.216 115.449 175.216C114.329 175.216 113.305 174.928 112.377 174.352C111.465 173.776 110.737 172.968 110.193 171.928C109.665 170.872 109.401 169.664 109.401 168.304ZM119.865 168.352C119.865 167.536 119.705 166.84 119.385 166.264C119.065 165.672 118.633 165.224 118.089 164.92C117.545 164.6 116.961 164.44 116.337 164.44C115.713 164.44 115.137 164.592 114.609 164.896C114.081 165.2 113.649 165.648 113.313 166.24C112.993 166.816 112.833 167.504 112.833 168.304C112.833 169.104 112.993 169.808 113.313 170.416C113.649 171.008 114.081 171.464 114.609 171.784C115.153 172.104 115.729 172.264 116.337 172.264C116.961 172.264 117.545 172.112 118.089 171.808C118.633 171.488 119.065 171.04 119.385 170.464C119.705 169.872 119.865 169.168 119.865 168.352ZM133.899 161.512C135.483 161.512 136.763 162.016 137.739 163.024C138.715 164.016 139.203 165.408 139.203 167.2V175H135.843V167.656C135.843 166.6 135.579 165.792 135.051 165.232C134.523 164.656 133.803 164.368 132.891 164.368C131.963 164.368 131.227 164.656 130.683 165.232C130.155 165.792 129.891 166.6 129.891 167.656V175H126.531V161.704H129.891V163.36C130.339 162.784 130.907 162.336 131.595 162.016C132.299 161.68 133.067 161.512 133.899 161.512ZM146.31 164.464V170.896C146.31 171.344 146.414 171.672 146.622 171.88C146.846 172.072 147.214 172.168 147.726 172.168H149.286V175H147.174C144.342 175 142.926 173.624 142.926 170.872V164.464H141.342V161.704H142.926V158.416H146.31V161.704H149.286V164.464H146.31ZM156.791 175.216C155.703 175.216 154.727 175.024 153.863 174.64C152.999 174.24 152.311 173.704 151.799 173.032C151.303 172.36 151.031 171.616 150.983 170.8H154.367C154.431 171.312 154.679 171.736 155.111 172.072C155.559 172.408 156.111 172.576 156.767 172.576C157.407 172.576 157.903 172.448 158.255 172.192C158.623 171.936 158.807 171.608 158.807 171.208C158.807 170.776 158.583 170.456 158.135 170.248C157.703 170.024 157.007 169.784 156.047 169.528C155.055 169.288 154.239 169.04 153.599 168.784C152.975 168.528 152.431 168.136 151.967 167.608C151.519 167.08 151.295 166.368 151.295 165.472C151.295 164.736 151.503 164.064 151.919 163.456C152.351 162.848 152.959 162.368 153.743 162.016C154.543 161.664 155.479 161.488 156.551 161.488C158.135 161.488 159.399 161.888 160.343 162.688C161.287 163.472 161.807 164.536 161.903 165.88H158.687C158.639 165.352 158.415 164.936 158.015 164.632C157.631 164.312 157.111 164.152 156.455 164.152C155.847 164.152 155.375 164.264 155.039 164.488C154.719 164.712 154.559 165.024 154.559 165.424C154.559 165.872 154.783 166.216 155.231 166.456C155.679 166.68 156.375 166.912 157.319 167.152C158.279 167.392 159.071 167.64 159.695 167.896C160.319 168.152 160.855 168.552 161.303 169.096C161.767 169.624 162.007 170.328 162.023 171.208C162.023 171.976 161.807 172.664 161.375 173.272C160.959 173.88 160.351 174.36 159.551 174.712C158.767 175.048 157.847 175.216 156.791 175.216Z" fill="#3F4255"/>
</svg>
